<?xml version="1.0" standalone="no"?>
<!DOCTYPE svg PUBLIC "-//W3C//DTD SVG 20010904//EN"
 "http://www.w3.org/TR/2001/REC-SVG-20010904/DTD/svg10.dtd">
<svg version="1.0" xmlns="http://www.w3.org/2000/svg"
 width="893.000000pt" height="279.000000pt" viewBox="0 0 893.000000 279.000000"
 preserveAspectRatio="xMidYMid meet">
<metadata>
Created by potrace 1.16, written by Peter Selinger 2001-2019
</metadata>
<g transform="translate(0.000000,279.000000) scale(0.100000,-0.100000)"
fill="#000000" stroke="none">
<path d="M1867 2659 c-43 -25 -47 -55 -47 -323 l0 -255 -774 0 c-540 1 -780
-2 -794 -10 -11 -6 -30 -23 -41 -37 -21 -26 -21 -34 -21 -678 0 -700 -1 -680
53 -720 28 -20 40 -21 418 -24 l389 -3 0 -99 0 -100 -136 0 -136 0 -29 -29
c-39 -40 -39 -80 2 -120 l31 -31 489 0 c413 0 494 2 519 15 15 8 30 20 32 27
3 9 15 4 37 -15 l33 -27 524 0 525 0 30 32 29 32 0 1164 0 1163 -25 24 -24 25
-533 0 c-343 0 -539 -4 -551 -11z m958 -364 l0 -120 -390 0 -390 0 -3 109 c-1
61 0 116 2 123 5 11 79 13 393 11 l388 -3 0 -120z m-540 -261 c44 -17 45 -27
45 -692 l0 -629 -25 -27 -24 -26 -1001 0 -1001 0 -24 25 -25 24 0 641 0 641
25 24 24 25 995 0 c547 0 1002 -3 1011 -6z m543 -235 c3 -114 2 -117 -20 -123
-30 -8 -402 -8 -422 0 -13 5 -16 26 -16 125 l0 119 228 -2 227 -3 3 -116z
m130 -939 c3 -612 7 -580 -78 -580 l-50 0 0 514 0 514 52 46 c29 25 57 45 63
43 6 -2 11 -188 13 -537z m-467 147 c84 -56 49 -187 -50 -187 -70 0 -71 2 -71
101 0 84 2 90 23 99 36 15 62 11 98 -13z m-1023 -494 l3 -103 -191 0 -190 0 0
105 0 105 188 -2 187 -3 3 -102z m530 -65 l2 -168 -45 0 c-85 0 -85 0 -85 174
0 84 3 156 7 160 4 4 32 6 63 4 l55 -3 3 -167z m-178 47 l0 -115 -25 16 c-21
14 -49 16 -150 15 -96 -1 -125 1 -126 11 -1 7 -2 52 -3 100 l-1 88 153 0 152
0 0 -115z m-42 -138 c15 -10 16 -49 0 -65 -17 -17 -979 -17 -996 0 -17 17 -15
55 3 66 20 11 976 10 993 -1z"/>
<path d="M326 1944 c-14 -14 -16 -81 -16 -594 0 -513 2 -580 16 -594 14 -14
114 -16 953 -16 896 0 939 1 954 18 15 17 17 73 17 594 0 544 -1 576 -18 591
-17 16 -98 17 -955 17 -837 0 -937 -2 -951 -16z m1882 -596 l2 -568 -930 0
-930 0 0 570 0 570 928 -2 927 -3 3 -567z"/>
<path d="M3182 1929 c-5 -13 -21 -85 -36 -159 -15 -74 -38 -189 -51 -255 -14
-66 -25 -126 -25 -133 0 -8 21 -12 69 -12 l70 0 12 58 c7 31 13 66 14 77 1 17
9 20 55 20 l53 0 46 -75 47 -75 72 -3 73 -3 -42 78 c-23 43 -46 83 -51 89 -6
8 0 14 17 18 40 10 113 83 125 125 5 20 10 60 10 90 0 71 -27 114 -94 148 -47
24 -64 27 -203 31 l-152 5 -9 -24z m279 -114 c38 -20 51 -53 38 -100 -14 -51
-68 -74 -167 -75 -65 0 -73 2 -68 18 2 9 12 52 21 95 l17 77 65 0 c38 0 76 -6
94 -15z"/>
<path d="M6236 1816 c-126 -47 -206 -205 -162 -321 20 -52 83 -110 135 -125
84 -23 209 0 252 46 l23 24 -34 35 c-30 31 -35 33 -50 20 -74 -67 -191 -46
-220 40 -24 71 32 170 108 193 54 16 69 15 120 -9 42 -21 46 -21 78 -6 48 23
47 58 -3 88 -47 29 -186 37 -247 15z"/>
<path d="M6940 1821 c-73 -23 -138 -79 -166 -146 -11 -27 -16 -64 -15 -115 2
-97 27 -137 106 -175 50 -25 63 -27 129 -22 93 7 155 36 204 96 61 73 77 152
50 243 -14 48 -71 105 -118 118 -41 11 -154 12 -190 1z m144 -95 c44 -18 66
-51 66 -99 0 -128 -138 -214 -238 -149 -33 21 -45 50 -43 100 4 115 113 190
215 148z"/>
<path d="M8398 1821 c-66 -22 -108 -75 -108 -138 0 -61 35 -97 116 -123 85
-26 104 -37 104 -60 0 -53 -112 -66 -199 -23 l-42 21 -20 -41 c-21 -39 -21
-41 -3 -54 36 -27 125 -46 189 -41 115 10 185 68 185 156 0 53 -25 81 -95 107
-100 37 -115 44 -122 61 -8 22 27 51 73 60 24 4 52 0 90 -14 l55 -20 19 39 20
38 -26 18 c-30 19 -189 29 -236 14z"/>
<path d="M3711 1623 c-23 -109 -41 -210 -41 -225 l0 -28 174 0 c172 0 174 0
180 23 3 12 6 32 6 45 0 22 -2 22 -121 22 l-121 0 7 33 c14 71 8 67 110 67
105 0 125 10 125 61 l0 29 -100 0 -100 0 6 28 c3 15 7 33 10 40 2 9 34 12 112
12 120 0 132 5 136 60 l2 30 -171 0 -172 0 -42 -197z"/>
<path d="M4166 1718 c-10 -57 -29 -154 -42 -216 -13 -63 -24 -118 -24 -123 0
-5 25 -9 55 -9 51 0 55 2 61 28 22 96 10 86 110 93 127 8 185 40 219 122 30
73 10 150 -50 187 -28 18 -49 20 -171 20 l-140 0 -18 -102z m226 12 c62 -18
72 -66 25 -117 -17 -20 -31 -23 -90 -23 l-70 0 7 50 c11 84 21 100 58 100 18
0 50 -5 70 -10z"/>
<path d="M4675 1623 c-144 -223 -155 -240 -155 -248 0 -3 24 -5 53 -5 58 0 71
9 101 68 l17 33 102 -3 101 -3 14 -47 13 -48 55 0 c30 0 54 2 54 6 0 3 -13 55
-29 117 -16 62 -36 144 -45 182 -9 39 -21 87 -27 108 l-10 37 -58 0 -58 0
-128 -197z"/>
<path d="M5132 1668 c-33 -160 -52 -263 -52 -285 0 -9 16 -13 54 -13 l53 0 12
60 12 60 37 0 c48 0 54 -5 86 -67 l26 -53 60 0 60 0 -35 69 -34 69 44 28 c58
37 79 84 73 160 -4 50 -9 61 -41 91 l-37 33 -143 0 -143 0 -32 -152z m216 62
c46 0 76 -33 68 -74 -10 -50 -38 -66 -117 -66 -38 0 -69 4 -69 10 0 25 24 117
33 128 6 7 20 11 31 8 12 -3 36 -6 54 -6z"/>
<path d="M5756 1788 c-20 -35 -79 -127 -193 -300 -39 -59 -68 -109 -65 -112 3
-3 28 -6 56 -6 50 0 52 1 85 50 l34 50 93 0 c100 0 102 -1 119 -60 10 -34 13
-35 63 -38 l53 -3 -5 38 c-2 21 -18 90 -35 154 -16 63 -32 126 -35 140 -3 13
-11 44 -18 69 l-14 45 -60 3 c-58 3 -60 2 -78 -30z"/>
<path d="M6605 1773 c-4 -27 -22 -119 -41 -206 -19 -87 -34 -167 -34 -178 0
-16 7 -19 53 -19 l54 0 32 148 c37 173 37 171 46 245 l7 57 -55 0 -56 0 -6
-47z"/>
<path d="M7371 1783 c-13 -53 -58 -269 -66 -318 -3 -22 -8 -52 -11 -67 -6 -28
-5 -28 49 -28 l55 0 11 48 c5 26 13 67 16 92 4 25 11 63 17 85 l10 39 19 -24
c11 -14 33 -50 51 -80 17 -30 46 -79 65 -107 33 -51 36 -53 78 -53 43 0 45 1
55 39 6 22 13 59 16 83 5 39 32 174 52 258 14 60 7 70 -48 70 l-48 0 -21 -92
c-12 -51 -24 -111 -29 -133 l-8 -39 -28 44 c-15 25 -51 83 -79 130 l-52 85
-47 3 c-47 3 -47 3 -57 -35z"/>
<path d="M7886 1748 c-8 -40 -18 -93 -22 -118 -3 -25 -15 -82 -25 -128 -11
-45 -19 -94 -19 -108 l0 -24 178 2 177 3 3 43 3 42 -117 0 -117 0 7 42 c4 23
12 46 19 50 7 5 54 7 104 6 102 -3 103 -2 103 58 l0 34 -101 0 -101 0 7 33 c4
17 11 36 15 41 5 5 59 9 120 9 60 0 112 2 114 6 2 3 6 23 10 44 l7 37 -175 0
-174 0 -16 -72z"/>
<path d="M3152 823 c-58 -283 -84 -415 -80 -418 2 -1 29 -6 60 -9 49 -6 58 -4
66 11 9 17 28 113 39 193 2 19 9 53 15 75 l11 40 33 -70 c19 -38 43 -96 55
-127 31 -83 79 -89 130 -16 13 18 34 47 48 64 14 18 36 45 48 60 12 16 33 43
47 59 l24 30 -9 -50 c-5 -27 -15 -77 -23 -110 -8 -33 -17 -81 -21 -106 l-6
-46 49 -7 c27 -3 56 -4 64 -1 15 6 46 137 99 415 12 63 24 125 27 138 4 21 1
22 -56 22 -60 0 -60 0 -99 -47 -22 -27 -74 -93 -115 -148 -42 -55 -86 -111
-98 -124 -28 -28 -23 -35 -91 135 -76 192 -70 184 -133 184 l-53 0 -31 -147z"/>
<path d="M4016 835 c-75 -30 -100 -55 -137 -131 -53 -112 -31 -215 60 -279 39
-27 50 -30 131 -32 114 -2 156 14 220 83 54 60 75 123 68 205 -14 146 -179
221 -342 154z m190 -91 c44 -29 50 -126 13 -196 -19 -36 -70 -58 -132 -58 -51
0 -62 4 -88 29 -24 25 -29 38 -29 78 1 129 135 213 236 147z"/>
<path d="M4420 840 c0 -6 9 -28 20 -50 11 -22 20 -44 20 -50 0 -6 16 -49 37
-95 l36 -85 -17 -76 c-9 -42 -15 -78 -13 -80 6 -7 94 -7 104 -1 6 4 16 37 23
74 13 72 25 96 77 159 104 125 141 171 152 192 11 22 11 22 -42 22 l-55 0 -78
-95 c-86 -105 -86 -105 -114 -15 -6 19 -18 52 -27 73 -16 36 -17 37 -70 37
-30 0 -53 -4 -53 -10z"/>
<path d="M5012 773 c-195 -296 -241 -367 -239 -369 1 -1 28 -5 60 -8 50 -6 58
-5 65 11 4 10 16 33 27 51 l19 32 103 0 103 0 12 -45 c9 -34 17 -45 33 -46 11
-1 35 -3 53 -5 40 -3 40 1 7 126 -29 115 -49 196 -66 273 l-12 57 -57 0 -57 0
-51 -77z"/>
</g>
</svg>
